<svg version="1.1" id="Layer_1" xmlns="http://www.w3.org/2000/svg" xmlns:xlink="http://www.w3.org/1999/xlink" x="0px" y="0px"
	 width="100%" viewBox="0 0 1829 1306" enable-background="new 0 0 1829 1306" xml:space="preserve">
<path fill="#FF0101" opacity="1.000000" stroke="none" 
	d="
M2.000000,1.000000 
	C611.256348,1.000000 1220.512695,1.000000 1830.000000,1.000000 
	C1830.000000,435.701538 1830.000000,870.403137 1829.552979,1305.519043 
	C1825.607300,1305.955444 1822.108887,1305.997192 1818.610352,1305.997192 
	C1217.097412,1306.000122 615.584534,1306.000000 14.071643,1305.997314 
	C10.073428,1305.997192 6.075213,1305.957031 1.991338,1305.489990 
	C1.897238,1304.044800 1.881402,1303.045288 1.881401,1302.045654 
	C1.880853,870.027954 1.881269,438.010284 1.886760,5.992599 
	C1.886781,4.328399 1.960632,2.664200 2.000000,1.000000 
M1103.778442,737.572144 
	C1102.430054,737.393677 1101.081665,737.215210 1099.449707,736.999207 
	C1100.451660,741.332886 1103.216187,742.369812 1106.389038,741.919189 
	C1108.125244,741.672607 1110.879883,740.424072 1111.069824,739.278320 
	C1111.396484,737.307129 1110.077271,735.062927 1109.350098,732.598450 
	C1109.544922,732.480286 1110.398682,731.962646 1112.741089,730.542236 
	C1109.254150,729.112549 1106.963745,727.420532 1104.737305,727.500854 
	C1102.983887,727.564148 1101.309326,729.812073 1099.599854,731.089661 
	C1100.805664,732.629456 1101.920044,734.256653 1103.265015,735.663391 
	C1103.760010,736.181091 1104.799561,736.178101 1104.936401,737.188843 
	C1104.741211,737.465210 1104.546021,737.741577 1103.778442,737.572144 
M1197.382812,701.048157 
	C1210.052490,667.885864 1222.722168,634.723572 1235.519409,601.227539 
	C1221.763672,601.227539 1208.656250,601.227539 1195.510620,601.227539 
	C1190.267944,618.325439 1185.082764,635.235596 1179.897705,652.145691 
	C1179.546265,652.157593 1179.194946,652.169495 1178.843628,652.181335 
	C1173.261963,635.202332 1167.680420,618.223267 1162.024414,601.018066 
	C1152.998779,601.018066 1144.196899,601.018127 1135.394897,601.018127 
	C1126.632935,601.018127 1117.870972,601.018066 1108.859253,601.018066 
	C1109.832764,592.401611 1116.364868,593.610901 1121.517334,593.022278 
	C1121.517334,581.483643 1121.517334,570.222168 1121.517334,558.638000 
	C1109.899902,557.436951 1098.942383,558.407166 1089.120850,564.732605 
	C1076.077271,573.133240 1072.477295,586.394226 1071.702393,601.100830 
	C1068.382446,601.100830 1065.435791,601.100830 1062.375244,601.100830 
	C1062.375244,612.621033 1062.375244,623.806763 1062.375244,635.397949 
	C1065.653076,635.397949 1068.595459,635.397949 1071.952393,635.397949 
	C1071.952393,658.904358 1071.952393,682.006104 1071.952393,705.338501 
	C1084.124878,705.338501 1095.875854,705.338501 1108.081177,705.338501 
	C1108.081177,681.984741 1108.081177,658.889893 1108.081177,635.120361 
	C1112.884888,635.120361 1117.248291,635.120361 1121.986084,635.120361 
	C1121.986084,624.419373 1121.986084,614.394714 1121.986084,604.370117 
	C1123.264771,605.347900 1123.762329,606.490173 1124.212769,607.650757 
	C1134.728638,634.747070 1144.929443,661.972229 1155.938354,688.866699 
	C1159.280273,697.031067 1159.904907,704.033447 1155.390137,711.724792 
	C1152.891357,715.981812 1151.436157,720.852478 1149.519531,725.450317 
	C1145.388794,735.359436 1141.263794,745.270996 1136.946655,755.637268 
	C1149.820679,755.637268 1161.967285,755.746216 1174.105469,755.480469 
	C1175.417725,755.451721 1177.299927,753.493591 1177.874756,752.022766 
	C1184.403564,735.318726 1190.729248,718.535217 1197.382812,701.048157 
M596.005554,657.500000 
	C596.005554,673.409424 596.005554,689.318787 596.005554,705.292114 
	C608.391357,705.292114 620.118591,705.292114 632.305420,705.292114 
	C632.305420,691.404785 632.305420,677.840149 632.305420,663.887878 
	C638.073364,663.887878 643.388000,664.015198 648.694824,663.864990 
	C667.719116,663.326416 682.411133,652.930664 687.975220,636.183105 
	C690.868774,627.474060 691.175415,618.567139 689.964294,609.552185 
	C687.378052,590.302124 673.673096,576.189392 654.344055,575.079285 
	C635.260376,573.983398 616.079895,574.570801 596.941711,574.450745 
	C596.700256,574.449219 596.456177,574.857971 596.005554,575.261108 
	C596.005554,602.218872 596.005554,629.359436 596.005554,657.500000 
M920.165771,612.354187 
	C906.577148,595.162720 886.727173,596.151733 867.252380,615.510559 
	C867.252380,610.474731 867.252380,605.949280 867.252380,601.368713 
	C854.837036,601.368713 842.975708,601.368713 831.142578,601.368713 
	C831.142578,636.162476 831.142578,670.603516 831.142578,705.204712 
	C843.169983,705.204712 855.022400,705.204712 867.136658,705.204712 
	C867.136658,702.988953 867.136536,701.167725 867.136658,699.346497 
	C867.137451,683.026123 867.065918,666.705200 867.175781,650.385559 
	C867.217529,644.184265 868.477234,638.232666 874.749390,635.214600 
	C883.914551,630.804260 892.808472,637.655884 892.953918,649.322388 
	C893.130310,663.475708 893.002991,677.632751 893.006409,691.788208 
	C893.007507,696.238892 893.006653,700.689514 893.006653,705.337646 
	C905.219360,705.337646 916.959351,705.337646 928.752075,705.337646 
	C928.752075,682.105042 929.046448,659.148254 928.596558,636.206177 
	C928.433105,627.870911 925.624207,619.874023 920.165771,612.354187 
M946.737305,635.267883 
	C950.630432,634.584229 950.535217,637.131287 950.559448,639.809204 
	C950.656006,650.457642 950.441162,661.129272 951.080078,671.747864 
	C952.153992,689.596680 961.743896,701.503967 977.835632,704.434021 
	C985.582458,705.844666 993.646973,705.510559 1001.844360,705.982422 
	C1001.844360,693.749817 1001.844360,682.359924 1001.844360,670.361633 
	C998.496704,670.361633 995.191040,670.972656 992.288330,670.154236 
	C990.234375,669.575256 987.294861,667.131775 987.210144,665.400330 
	C986.724365,655.468567 986.973755,645.500916 986.973755,635.093018 
	C992.133362,635.093018 996.887512,635.093018 1001.630127,635.093018 
	C1001.630127,623.548706 1001.630127,612.466003 1001.630127,600.917725 
	C996.629700,600.917725 991.885681,600.917725 986.734131,600.917725 
	C986.734131,592.378113 986.734131,584.299866 986.734131,576.089233 
	C974.538147,576.089233 962.773926,576.089233 950.569885,576.089233 
	C950.569885,584.358093 950.569885,592.448120 950.569885,601.025513 
	C946.574524,601.025513 942.986267,601.025513 939.236694,601.025513 
	C939.236694,612.617859 939.236694,623.716736 939.236694,635.279663 
	C941.483765,635.279663 943.623230,635.279663 946.737305,635.267883 
M722.496826,705.602112 
	C727.607239,705.602112 732.717590,705.602112 738.252991,705.602112 
	C738.252991,703.433655 738.252991,701.800964 738.252991,700.168335 
	C738.252808,687.843384 738.166870,675.517639 738.275513,663.193604 
	C738.393005,649.872925 743.281616,644.852783 756.608887,644.239197 
	C760.537659,644.058350 764.481689,644.211304 768.339233,644.211304 
	C768.339233,629.242737 768.339233,614.967651 768.339233,600.325134 
	C754.945496,600.838074 746.557068,609.043213 738.122253,617.969177 
	C738.122253,612.385986 738.122253,606.802795 738.122253,601.273315 
	C725.896179,601.273315 714.137634,601.273315 702.314758,601.273315 
	C702.314758,636.069519 702.314758,670.607849 702.314758,705.602051 
	C708.899902,705.602051 715.199097,705.602051 722.496826,705.602112 
M787.574036,705.601929 
	C796.498047,705.601929 805.422119,705.601929 814.371765,705.601929 
	C814.371765,670.346680 814.371765,635.812622 814.371765,601.233459 
	C802.283386,601.233459 790.521240,601.233459 778.508545,601.233459 
	C778.508545,635.977539 778.508545,670.501038 778.508545,705.601807 
	C781.361694,705.601807 783.982056,705.601807 787.574036,705.601929 
M1033.500732,601.015503 
	C1027.746094,601.015503 1021.991394,601.015503 1016.291992,601.015503 
	C1016.291992,636.143311 1016.291992,670.661316 1016.291992,705.333374 
	C1028.311646,705.333374 1040.037231,705.333374 1051.986084,705.333374 
	C1051.986084,670.499207 1051.986084,635.946960 1051.986084,601.015076 
	C1046.084717,601.015076 1040.292236,601.015076 1033.500732,601.015503 
M1022.255432,594.256348 
	C1026.667480,593.891663 1031.096680,593.664673 1035.486450,593.120911 
	C1039.331787,592.644775 1043.124023,591.303406 1046.955688,591.234192 
	C1058.244629,591.030273 1066.144775,583.658020 1066.182007,572.766296 
	C1066.221680,561.221558 1058.210571,552.940247 1046.793579,553.533508 
	C1042.638794,553.749451 1039.182251,552.942688 1035.396606,551.486511 
	C1022.309937,546.452698 1008.567871,552.980347 1004.859863,565.602539 
	C1000.951965,578.905090 1007.925842,590.904724 1022.255432,594.256348 
M811.535767,553.366943 
	C807.895569,552.813904 804.110657,552.717346 800.643494,551.618347 
	C791.811218,548.818665 783.523682,549.153992 776.157471,555.150085 
	C768.040039,561.757690 765.989441,574.522339 771.241760,583.759644 
	C776.564087,593.120178 788.375183,596.963318 799.580261,593.434326 
	C803.707214,592.134460 808.136475,591.475403 812.469360,591.215088 
	C821.309692,590.683899 827.976746,585.821167 830.110107,577.727539 
	C833.433228,565.120239 826.305237,555.335144 811.535767,553.366943 
M880.528259,723.957764 
	C878.906006,727.661255 877.283691,731.364746 875.699524,734.981262 
	C871.286560,732.129700 874.564514,722.216675 865.260986,724.148376 
	C865.260986,730.137512 865.260986,735.902954 865.260986,743.192932 
	C867.256958,741.653015 868.897095,740.997498 869.397583,739.846497 
	C870.017395,738.421387 869.692139,736.585266 869.775208,734.926758 
	C871.375854,736.326233 871.768799,737.921448 872.600464,739.239929 
	C873.280823,740.318481 874.496765,741.776978 875.452148,741.760071 
	C876.385620,741.743469 877.517639,740.202576 878.152161,739.095581 
	C879.057190,737.516602 879.588074,735.723145 880.278748,734.021301 
	C880.512939,734.113586 880.747192,734.205872 880.981384,734.298157 
	C881.092224,736.743713 881.203003,739.189209 881.325439,741.891296 
	C882.865540,741.809204 884.096680,741.743591 885.440186,741.671997 
	C885.440186,735.649414 885.440186,729.932922 885.440186,723.877014 
	C883.867188,723.877014 882.564026,723.877014 880.528259,723.957764 
M1024.045898,729.917603 
	C1024.045898,736.049011 1024.045898,742.180359 1024.045898,748.777283 
	C1025.732422,748.666260 1027.032837,748.580688 1028.331909,748.495178 
	C1028.513916,745.674438 1028.661133,743.391907 1028.725952,742.388367 
	C1032.071045,741.545532 1035.679565,741.688660 1037.126465,739.990295 
	C1038.731812,738.106140 1039.185791,734.382324 1038.677124,731.741455 
	C1037.733643,726.842590 1029.405640,725.486572 1024.045898,729.917603 
M974.112366,736.531799 
	C974.045959,727.739075 971.873779,725.989319 964.077271,728.741211 
	C964.077271,726.882141 964.077271,725.101257 964.077271,722.899048 
	C962.444885,723.014038 961.095093,723.109070 959.869507,723.195374 
	C959.869507,729.637573 959.869507,735.596191 959.869507,741.709595 
	C961.271790,741.709595 962.496521,741.709595 963.757324,741.709595 
	C963.872925,740.985657 963.905579,740.494446 964.033020,740.029297 
	C964.861633,737.005798 961.898621,731.413086 966.814453,731.425354 
	C972.141602,731.438660 968.904785,737.208862 969.861877,740.317200 
	C969.998657,740.761353 970.080322,741.222534 970.248169,741.932556 
	C971.532959,741.843567 972.753601,741.758972 974.097046,741.665894 
	C974.097046,740.002502 974.097046,738.678040 974.112366,736.531799 
M981.694702,741.116211 
	C985.678101,741.373047 989.661499,741.629944 993.673096,741.888611 
	C993.673096,736.832275 993.673096,732.411743 993.673096,727.443298 
	C991.636597,727.771423 989.686035,728.712830 988.280029,728.189941 
	C984.634399,726.834045 981.505432,726.991760 979.692871,730.549683 
	C977.937500,733.995239 978.106689,737.640503 981.694702,741.116211 
M935.759521,739.091309 
	C936.519531,735.218384 938.467590,731.012207 933.642639,728.362854 
	C930.215088,726.480957 926.635864,726.743103 924.183777,729.914917 
	C921.701660,733.125610 921.846924,736.831543 924.547668,739.990845 
	C927.055237,742.924255 931.123352,742.695679 935.759521,739.091309 
M1005.506836,731.150085 
	C1012.712219,732.238525 1007.196716,738.383850 1009.966736,741.560791 
	C1010.903259,741.560791 1012.223999,741.560791 1013.725586,741.560791 
	C1013.725586,738.381409 1014.284790,735.418274 1013.546326,732.824646 
	C1012.969849,730.799988 1011.028992,728.100281 1009.255249,727.713257 
	C1006.085938,727.021729 1002.585388,727.848145 999.329224,728.033936 
	C999.329224,732.784790 999.329224,737.222351 999.329224,741.599426 
	C1002.450745,742.551514 1003.846069,741.815552 1003.750549,738.464783 
	C1003.687256,736.245178 1004.377075,734.004089 1005.506836,731.150085 
M1070.336060,727.597717 
	C1068.116943,727.266296 1066.884644,727.867859 1067.064941,730.467529 
	C1067.248047,733.108643 1067.212402,735.779602 1067.061401,738.425476 
	C1066.854980,742.041199 1068.305908,742.781250 1071.638916,741.168762 
	C1071.638916,739.057800 1071.265991,736.827942 1071.766724,734.815613 
	C1072.114746,733.417542 1073.664185,732.318359 1074.676880,731.085632 
	C1075.510132,732.302307 1076.828247,733.431335 1077.067627,734.755371 
	C1077.467163,736.965271 1077.176636,739.299988 1077.176636,741.701294 
	C1078.493774,741.811707 1079.298828,741.938843 1080.100952,741.923035 
	C1080.549561,741.914307 1080.993652,741.668518 1081.392822,741.544128 
	C1082.865112,729.384277 1081.794678,727.952148 1071.514160,728.166321 
	C1071.380249,728.169067 1071.242432,727.988464 1070.336060,727.597717 
M904.094604,730.754761 
	C901.269958,726.849792 897.520508,726.269165 893.595459,728.509216 
	C890.093262,730.507935 889.389587,733.932800 890.805908,737.618408 
	C892.317871,741.553040 895.599304,742.479004 899.359985,741.911743 
	C903.883667,741.229370 905.592468,737.590637 904.094604,730.754761 
M1088.155396,739.187134 
	C1090.087646,740.352905 1092.020020,741.518738 1093.952393,742.684570 
	C1094.421143,742.237183 1094.889771,741.789856 1095.358521,741.342529 
	C1094.691895,740.198059 1093.780396,739.126038 1093.415527,737.892334 
	C1092.855103,735.998108 1091.869141,732.595276 1092.455444,732.259094 
	C1096.581299,729.892822 1094.604126,728.902893 1092.486450,726.277954 
	C1091.193726,724.675537 1089.913696,723.200378 1088.844116,724.203796 
	C1087.324707,725.629272 1086.146240,728.165955 1086.117065,730.246094 
	C1086.078857,732.957275 1087.308472,735.686340 1088.155396,739.187134 
M953.854431,727.607788 
	C953.302979,727.320007 952.649963,727.137146 952.221436,726.722412 
	C951.349609,725.878540 950.598999,724.909424 949.798462,723.991943 
	C948.953308,724.899536 948.213257,725.943237 947.244751,726.691162 
	C943.025146,729.949219 948.371704,732.617737 947.769775,735.908142 
	C946.936096,740.464539 949.858032,742.391296 955.255615,741.675842 
	C954.607300,740.247375 954.365173,738.901367 953.570068,738.112854 
	C951.101074,735.664307 951.008423,733.522217 953.573669,731.064331 
	C954.266357,730.400574 954.264587,729.012085 953.854431,727.607788 
M909.866943,728.598511 
	C909.866943,732.900146 909.866943,737.201843 909.866943,741.907349 
	C911.361938,741.816528 912.696655,741.735535 912.720398,741.734070 
	C914.196106,737.995361 914.572205,733.679871 916.621704,732.629395 
	C919.778259,731.011536 919.252441,729.783875 918.629883,727.889160 
	C915.568970,727.889160 912.911987,727.889160 909.866943,728.598511 
M1048.240601,736.450134 
	C1048.962891,735.085938 1049.491455,732.719971 1050.442017,732.536072 
	C1054.003418,731.847229 1053.338257,729.915649 1052.937988,728.213806 
	C1049.724365,728.004395 1047.029907,727.828857 1044.161377,727.641968 
	C1044.161377,732.550659 1044.161377,737.122253 1044.161377,741.977356 
	C1045.649658,741.851135 1046.869385,741.747681 1048.219849,741.633179 
	C1048.219849,739.962341 1048.219849,738.635071 1048.240601,736.450134 
M1057.339844,737.276001 
	C1057.408447,738.735168 1057.476929,740.194397 1057.546143,741.666504 
	C1059.115234,741.666504 1060.353394,741.666504 1061.708496,741.666504 
	C1061.708496,736.963074 1061.708496,732.538391 1061.708496,727.645874 
	C1060.148193,727.723694 1058.807861,727.790527 1057.338135,727.863831 
	C1057.338135,731.057312 1057.338135,733.709717 1057.339844,737.276001 
z"/>
<path fill="#FF7E7E" opacity="1.000000" stroke="none" 
	d="
M2.076998,1305.935547 
	C6.075213,1305.957031 10.073428,1305.997192 14.071643,1305.997314 
	C615.584534,1306.000000 1217.097412,1306.000122 1818.610352,1305.997192 
	C1822.108887,1305.997192 1825.607300,1305.955444 1829.552979,1305.966553 
	C1829.833496,1306.333374 1829.684326,1306.943726 1829.497559,1306.955566 
	C1828.169800,1307.038940 1826.834229,1307.000000 1825.501221,1307.000000 
	C1217.965942,1307.000000 610.430603,1307.000000 2.438155,1306.731812 
	C2.013031,1306.287598 2.045014,1306.111572 2.076998,1305.935547 
z"/>
<path fill="#FFFDFD" opacity="1.000000" stroke="none" 
	d="
M1.991338,1305.489990 
	C2.045014,1306.111572 2.013031,1306.287598 1.990512,1306.731812 
	C1.666644,1306.833374 1.056178,1306.684204 1.044438,1306.497192 
	C0.960992,1305.169067 1.000000,1303.833374 1.000000,1302.500000 
	C1.000000,868.666687 1.000000,434.833344 1.500000,1.000000 
	C1.960632,2.664200 1.886781,4.328399 1.886760,5.992599 
	C1.881269,438.010284 1.880853,870.027954 1.881401,1302.045654 
	C1.881402,1303.045288 1.897238,1304.044800 1.991338,1305.489990 
z"/>
<path fill="#FFFDFD" opacity="1.000000" stroke="none" 
	d="
M1197.246094,701.410522 
	C1190.729248,718.535217 1184.403564,735.318726 1177.874756,752.022766 
	C1177.299927,753.493591 1175.417725,755.451721 1174.105469,755.480469 
	C1161.967285,755.746216 1149.820679,755.637268 1136.946655,755.637268 
	C1141.263794,745.270996 1145.388794,735.359436 1149.519531,725.450317 
	C1151.436157,720.852478 1152.891357,715.981812 1155.390137,711.724792 
	C1159.904907,704.033447 1159.280273,697.031067 1155.938354,688.866699 
	C1144.929443,661.972229 1134.728638,634.747070 1124.212769,607.650757 
	C1123.762329,606.490173 1123.264771,605.347900 1121.986084,604.370117 
	C1121.986084,614.394714 1121.986084,624.419373 1121.986084,635.120361 
	C1117.248291,635.120361 1112.884888,635.120361 1108.081177,635.120361 
	C1108.081177,658.889893 1108.081177,681.984741 1108.081177,705.338501 
	C1095.875854,705.338501 1084.124878,705.338501 1071.952393,705.338501 
	C1071.952393,682.006104 1071.952393,658.904358 1071.952393,635.397949 
	C1068.595459,635.397949 1065.653076,635.397949 1062.375244,635.397949 
	C1062.375244,623.806763 1062.375244,612.621033 1062.375244,601.100830 
	C1065.435791,601.100830 1068.382446,601.100830 1071.702393,601.100830 
	C1072.477295,586.394226 1076.077271,573.133240 1089.120850,564.732605 
	C1098.942383,558.407166 1109.899902,557.436951 1121.517334,558.638000 
	C1121.517334,570.222168 1121.517334,581.483643 1121.517334,593.022278 
	C1116.364868,593.610901 1109.832764,592.401611 1108.859253,601.018066 
	C1117.870972,601.018066 1126.632935,601.018127 1135.394897,601.018127 
	C1144.196899,601.018127 1152.998779,601.018066 1162.024414,601.018066 
	C1167.680420,618.223267 1173.261963,635.202332 1178.843628,652.181335 
	C1179.194946,652.169495 1179.546265,652.157593 1179.897705,652.145691 
	C1185.082764,635.235596 1190.267944,618.325439 1195.510620,601.227539 
	C1208.656250,601.227539 1221.763672,601.227539 1235.519409,601.227539 
	C1222.722168,634.723572 1210.052490,667.885864 1197.246094,701.410522 
z"/>
<path fill="#FFFDFD" opacity="1.000000" stroke="none" 
	d="
M596.005554,657.000000 
	C596.005554,629.359436 596.005554,602.218872 596.005554,575.261108 
	C596.456177,574.857971 596.700256,574.449219 596.941711,574.450745 
	C616.079895,574.570801 635.260376,573.983398 654.344055,575.079285 
	C673.673096,576.189392 687.378052,590.302124 689.964294,609.552185 
	C691.175415,618.567139 690.868774,627.474060 687.975220,636.183105 
	C682.411133,652.930664 667.719116,663.326416 648.694824,663.864990 
	C643.388000,664.015198 638.073364,663.887878 632.305420,663.887878 
	C632.305420,677.840149 632.305420,691.404785 632.305420,705.292114 
	C620.118591,705.292114 608.391357,705.292114 596.005554,705.292114 
	C596.005554,689.318787 596.005554,673.409424 596.005554,657.000000 
M639.393250,631.405823 
	C641.546509,631.291626 643.733765,631.379456 645.846130,631.022949 
	C650.831970,630.181519 653.495972,626.596313 653.893311,620.558044 
	C654.315979,614.135986 651.902405,609.059387 647.107056,608.159912 
	C642.351135,607.267761 637.401184,607.409973 632.435913,607.092163 
	C632.435913,615.670715 632.435913,623.257751 632.435913,631.406250 
	C634.609619,631.406250 636.560547,631.406250 639.393250,631.405823 
z"/>
<path fill="#FFFDFD" opacity="1.000000" stroke="none" 
	d="
M920.390991,612.633423 
	C925.624207,619.874023 928.433105,627.870911 928.596558,636.206177 
	C929.046448,659.148254 928.752075,682.105042 928.752075,705.337646 
	C916.959351,705.337646 905.219360,705.337646 893.006653,705.337646 
	C893.006653,700.689514 893.007507,696.238892 893.006409,691.788208 
	C893.002991,677.632751 893.130310,663.475708 892.953918,649.322388 
	C892.808472,637.655884 883.914551,630.804260 874.749390,635.214600 
	C868.477234,638.232666 867.217529,644.184265 867.175781,650.385559 
	C867.065918,666.705200 867.137451,683.026123 867.136658,699.346497 
	C867.136536,701.167725 867.136658,702.988953 867.136658,705.204712 
	C855.022400,705.204712 843.169983,705.204712 831.142578,705.204712 
	C831.142578,670.603516 831.142578,636.162476 831.142578,601.368713 
	C842.975708,601.368713 854.837036,601.368713 867.252380,601.368713 
	C867.252380,605.949280 867.252380,610.474731 867.252380,615.510559 
	C886.727173,596.151733 906.577148,595.162720 920.390991,612.633423 
z"/>
<path fill="#FFFDFD" opacity="1.000000" stroke="none" 
	d="
M946.250000,635.273804 
	C943.623230,635.279663 941.483765,635.279663 939.236694,635.279663 
	C939.236694,623.716736 939.236694,612.617859 939.236694,601.025513 
	C942.986267,601.025513 946.574524,601.025513 950.569885,601.025513 
	C950.569885,592.448120 950.569885,584.358093 950.569885,576.089233 
	C962.773926,576.089233 974.538147,576.089233 986.734131,576.089233 
	C986.734131,584.299866 986.734131,592.378113 986.734131,600.917725 
	C991.885681,600.917725 996.629700,600.917725 1001.630127,600.917725 
	C1001.630127,612.466003 1001.630127,623.548706 1001.630127,635.093018 
	C996.887512,635.093018 992.133362,635.093018 986.973755,635.093018 
	C986.973755,645.500916 986.724365,655.468567 987.210144,665.400330 
	C987.294861,667.131775 990.234375,669.575256 992.288330,670.154236 
	C995.191040,670.972656 998.496704,670.361633 1001.844360,670.361633 
	C1001.844360,682.359924 1001.844360,693.749817 1001.844360,705.982422 
	C993.646973,705.510559 985.582458,705.844666 977.835632,704.434021 
	C961.743896,701.503967 952.153992,689.596680 951.080078,671.747864 
	C950.441162,661.129272 950.656006,650.457642 950.559448,639.809204 
	C950.535217,637.131287 950.630432,634.584229 946.250000,635.273804 
z"/>
<path fill="#FFFDFD" opacity="1.000000" stroke="none" 
	d="
M721.997559,705.602051 
	C715.199097,705.602051 708.899902,705.602051 702.314758,705.602051 
	C702.314758,670.607849 702.314758,636.069519 702.314758,601.273315 
	C714.137634,601.273315 725.896179,601.273315 738.122253,601.273315 
	C738.122253,606.802795 738.122253,612.385986 738.122253,617.969177 
	C746.557068,609.043213 754.945496,600.838074 768.339233,600.325134 
	C768.339233,614.967651 768.339233,629.242737 768.339233,644.211304 
	C764.481689,644.211304 760.537659,644.058350 756.608887,644.239197 
	C743.281616,644.852783 738.393005,649.872925 738.275513,663.193604 
	C738.166870,675.517639 738.252808,687.843384 738.252991,700.168335 
	C738.252991,701.800964 738.252991,703.433655 738.252991,705.602112 
	C732.717590,705.602112 727.607239,705.602112 721.997559,705.602051 
z"/>
<path fill="#FFFDFD" opacity="1.000000" stroke="none" 
	d="
M787.088196,705.601868 
	C783.982056,705.601807 781.361694,705.601807 778.508545,705.601807 
	C778.508545,670.501038 778.508545,635.977539 778.508545,601.233459 
	C790.521240,601.233459 802.283386,601.233459 814.371765,601.233459 
	C814.371765,635.812622 814.371765,670.346680 814.371765,705.601929 
	C805.422119,705.601929 796.498047,705.601929 787.088196,705.601868 
z"/>
<path fill="#FFFDFD" opacity="1.000000" stroke="none" 
	d="
M1034.000244,601.015259 
	C1040.292236,601.015076 1046.084717,601.015076 1051.986084,601.015076 
	C1051.986084,635.946960 1051.986084,670.499207 1051.986084,705.333374 
	C1040.037231,705.333374 1028.311646,705.333374 1016.291992,705.333374 
	C1016.291992,670.661316 1016.291992,636.143311 1016.291992,601.015503 
	C1021.991394,601.015503 1027.746094,601.015503 1034.000244,601.015259 
z"/>
<path fill="#FFFDFD" opacity="1.000000" stroke="none" 
	d="
M1021.841736,594.183350 
	C1007.925842,590.904724 1000.951965,578.905090 1004.859863,565.602539 
	C1008.567871,552.980347 1022.309937,546.452698 1035.396606,551.486511 
	C1039.182251,552.942688 1042.638794,553.749451 1046.793579,553.533508 
	C1058.210571,552.940247 1066.221680,561.221558 1066.182007,572.766296 
	C1066.144775,583.658020 1058.244629,591.030273 1046.955688,591.234192 
	C1043.124023,591.303406 1039.331787,592.644775 1035.486450,593.120911 
	C1031.096680,593.664673 1026.667480,593.891663 1021.841736,594.183350 
M1040.728882,588.218628 
	C1047.701172,590.106140 1054.271484,589.711975 1059.665771,584.309814 
	C1064.647705,579.320374 1065.244141,573.132202 1063.383423,566.732117 
	C1061.209595,559.254761 1054.424072,554.991272 1046.082520,555.373352 
	C1038.145142,555.736938 1031.735352,560.802429 1030.138428,567.973694 
	C1028.170410,576.810547 1031.517822,583.650452 1040.728882,588.218628 
M1029.977051,552.060791 
	C1028.647461,552.033997 1027.317017,551.962280 1025.988403,551.987671 
	C1017.250854,552.154419 1010.177795,556.855408 1007.245911,564.418884 
	C1004.128906,572.459595 1006.096802,581.856140 1012.069153,587.449524 
	C1017.982422,592.987671 1028.014526,594.337585 1035.699951,590.629333 
	C1022.642273,577.044678 1022.646545,566.364746 1036.185547,553.786499 
	C1034.187866,553.190186 1032.498169,552.685791 1029.977051,552.060791 
z"/>
<path fill="#FFFDFD" opacity="1.000000" stroke="none" 
	d="
M811.956604,553.375732 
	C826.305237,555.335144 833.433228,565.120239 830.110107,577.727539 
	C827.976746,585.821167 821.309692,590.683899 812.469360,591.215088 
	C808.136475,591.475403 803.707214,592.134460 799.580261,593.434326 
	C788.375183,596.963318 776.564087,593.120178 771.241760,583.759644 
	C765.989441,574.522339 768.040039,561.757690 776.157471,555.150085 
	C783.523682,549.153992 791.811218,548.818665 800.643494,551.618347 
	C804.110657,552.717346 807.895569,552.813904 811.956604,553.375732 
M825.526001,582.853333 
	C826.186584,581.700500 827.014343,580.611145 827.479858,579.384338 
	C829.976074,572.805542 829.375549,566.534546 824.766968,561.100586 
	C819.751648,555.186829 812.983887,554.440002 806.018616,556.212463 
	C799.441711,557.886047 795.791382,562.650574 794.519958,569.296814 
	C793.127197,576.577209 796.344238,583.736877 802.619324,587.110535 
	C809.921997,591.036743 818.622314,589.603760 825.526001,582.853333 
M783.900269,553.026550 
	C771.941406,557.946045 766.963867,570.304626 772.359924,581.679688 
	C777.084778,591.639893 790.337036,595.803101 800.409912,590.491577 
	C786.574707,580.513428 788.322571,562.568176 800.902161,553.999939 
	C795.429932,551.531433 790.140198,551.364807 783.900269,553.026550 
z"/>
<path fill="#FFFDFD" opacity="1.000000" stroke="none" 
	d="
M880.894592,723.917358 
	C882.564026,723.877014 883.867188,723.877014 885.440186,723.877014 
	C885.440186,729.932922 885.440186,735.649414 885.440186,741.671997 
	C884.096680,741.743591 882.865540,741.809204 881.325439,741.891296 
	C881.203003,739.189209 881.092224,736.743713 880.981384,734.298157 
	C880.747192,734.205872 880.512939,734.113586 880.278748,734.021301 
	C879.588074,735.723145 879.057190,737.516602 878.152161,739.095581 
	C877.517639,740.202576 876.385620,741.743469 875.452148,741.760071 
	C874.496765,741.776978 873.280823,740.318481 872.600464,739.239929 
	C871.768799,737.921448 871.375854,736.326233 869.775208,734.926758 
	C869.692139,736.585266 870.017395,738.421387 869.397583,739.846497 
	C868.897095,740.997498 867.256958,741.653015 865.260986,743.192932 
	C865.260986,735.902954 865.260986,730.137512 865.260986,724.148376 
	C874.564514,722.216675 871.286560,732.129700 875.699524,734.981262 
	C877.283691,731.364746 878.906006,727.661255 880.894592,723.917358 
z"/>
<path fill="#FFFDFD" opacity="1.000000" stroke="none" 
	d="
M1024.056763,729.460876 
	C1029.405640,725.486572 1037.733643,726.842590 1038.677124,731.741455 
	C1039.185791,734.382324 1038.731812,738.106140 1037.126465,739.990295 
	C1035.679565,741.688660 1032.071045,741.545532 1028.725952,742.388367 
	C1028.661133,743.391907 1028.513916,745.674438 1028.331909,748.495178 
	C1027.032837,748.580688 1025.732422,748.666260 1024.045898,748.777283 
	C1024.045898,742.180359 1024.045898,736.049011 1024.056763,729.460876 
M1034.489014,736.130371 
	C1033.762451,734.539673 1033.035767,732.949036 1032.309204,731.358276 
	C1031.210571,731.866089 1029.474731,732.129700 1029.164307,732.939636 
	C1028.710327,734.123962 1028.869873,736.639282 1029.497681,736.912842 
	C1030.782227,737.472473 1032.552246,736.917908 1034.489014,736.130371 
z"/>
<path fill="#FFFDFD" opacity="1.000000" stroke="none" 
	d="
M974.104736,736.942627 
	C974.097046,738.678040 974.097046,740.002502 974.097046,741.665894 
	C972.753601,741.758972 971.532959,741.843567 970.248169,741.932556 
	C970.080322,741.222534 969.998657,740.761353 969.861877,740.317200 
	C968.904785,737.208862 972.141602,731.438660 966.814453,731.425354 
	C961.898621,731.413086 964.861633,737.005798 964.033020,740.029297 
	C963.905579,740.494446 963.872925,740.985657 963.757324,741.709595 
	C962.496521,741.709595 961.271790,741.709595 959.869507,741.709595 
	C959.869507,735.596191 959.869507,729.637573 959.869507,723.195374 
	C961.095093,723.109070 962.444885,723.014038 964.077271,722.899048 
	C964.077271,725.101257 964.077271,726.882141 964.077271,728.741211 
	C971.873779,725.989319 974.045959,727.739075 974.104736,736.942627 
z"/>
<path fill="#FFFDFD" opacity="1.000000" stroke="none" 
	d="
M981.376709,740.897827 
	C978.106689,737.640503 977.937500,733.995239 979.692871,730.549683 
	C981.505432,726.991760 984.634399,726.834045 988.280029,728.189941 
	C989.686035,728.712830 991.636597,727.771423 993.673096,727.443298 
	C993.673096,732.411743 993.673096,736.832275 993.673096,741.888611 
	C989.661499,741.629944 985.678101,741.373047 981.376709,740.897827 
M986.597900,731.206970 
	C983.408508,731.774292 982.127014,733.672729 983.785828,736.475464 
	C984.316650,737.372437 987.156006,738.063416 987.825012,737.507629 
	C990.134399,735.588684 990.046448,733.259766 986.597900,731.206970 
z"/>
<path fill="#FFFDFD" opacity="1.000000" stroke="none" 
	d="
M935.501465,739.395691 
	C931.123352,742.695679 927.055237,742.924255 924.547668,739.990845 
	C921.846924,736.831543 921.701660,733.125610 924.183777,729.914917 
	C926.635864,726.743103 930.215088,726.480957 933.642639,728.362854 
	C938.467590,731.012207 936.519531,735.218384 935.501465,739.395691 
M927.816101,735.631287 
	C928.033752,736.466919 928.345825,738.039978 928.454773,738.026062 
	C929.802979,737.853394 931.121521,737.449585 932.447754,737.105225 
	C932.394592,736.721130 932.341492,736.336975 932.288330,735.952820 
	C931.101074,735.821899 929.913757,735.691040 927.816101,735.631287 
z"/>
<path fill="#FFFDFD" opacity="1.000000" stroke="none" 
	d="
M1005.118286,731.461304 
	C1004.377075,734.004089 1003.687256,736.245178 1003.750549,738.464783 
	C1003.846069,741.815552 1002.450745,742.551514 999.329224,741.599426 
	C999.329224,737.222351 999.329224,732.784790 999.329224,728.033936 
	C1002.585388,727.848145 1006.085938,727.021729 1009.255249,727.713257 
	C1011.028992,728.100281 1012.969849,730.799988 1013.546326,732.824646 
	C1014.284790,735.418274 1013.725586,738.381409 1013.725586,741.560791 
	C1012.223999,741.560791 1010.903259,741.560791 1009.966736,741.560791 
	C1007.196716,738.383850 1012.712219,732.238525 1005.118286,731.461304 
z"/>
<path fill="#FFFDFD" opacity="1.000000" stroke="none" 
	d="
M1070.721191,727.745605 
	C1071.242432,727.988464 1071.380249,728.169067 1071.514160,728.166321 
	C1081.794678,727.952148 1082.865112,729.384277 1081.392822,741.544128 
	C1080.993652,741.668518 1080.549561,741.914307 1080.100952,741.923035 
	C1079.298828,741.938843 1078.493774,741.811707 1077.176636,741.701294 
	C1077.176636,739.299988 1077.467163,736.965271 1077.067627,734.755371 
	C1076.828247,733.431335 1075.510132,732.302307 1074.676880,731.085632 
	C1073.664185,732.318359 1072.114746,733.417542 1071.766724,734.815613 
	C1071.265991,736.827942 1071.638916,739.057800 1071.638916,741.168762 
	C1068.305908,742.781250 1066.854980,742.041199 1067.061401,738.425476 
	C1067.212402,735.779602 1067.248047,733.108643 1067.064941,730.467529 
	C1066.884644,727.867859 1068.116943,727.266296 1070.721191,727.745605 
z"/>
<path fill="#FFFDFD" opacity="1.000000" stroke="none" 
	d="
M904.302673,731.091797 
	C905.592468,737.590637 903.883667,741.229370 899.359985,741.911743 
	C895.599304,742.479004 892.317871,741.553040 890.805908,737.618408 
	C889.389587,733.932800 890.093262,730.507935 893.595459,728.509216 
	C897.520508,726.269165 901.269958,726.849792 904.302673,731.091797 
M899.627563,737.458801 
	C901.120300,734.970947 901.395386,732.538391 898.222290,731.431152 
	C897.507751,731.181702 895.300232,732.948975 895.052063,734.069641 
	C894.431213,736.873657 895.693481,738.618530 899.627563,737.458801 
z"/>
<path fill="#FFFDFD" opacity="1.000000" stroke="none" 
	d="
M1105.590698,736.412659 
	C1104.799561,736.178101 1103.760010,736.181091 1103.265015,735.663391 
	C1101.920044,734.256653 1100.805664,732.629456 1099.599854,731.089600 
	C1101.309326,729.812073 1102.983887,727.564148 1104.737305,727.500854 
	C1106.963745,727.420532 1109.254150,729.112549 1112.741089,730.542236 
	C1110.398682,731.962646 1109.544922,732.480286 1109.350098,732.598450 
	C1110.077271,735.062927 1111.396484,737.307129 1111.069824,739.278320 
	C1110.879883,740.424072 1108.125244,741.672607 1106.389038,741.919189 
	C1103.216187,742.369812 1100.451660,741.332886 1099.449707,736.999207 
	C1101.081665,737.215210 1102.430054,737.393677 1104.240479,738.088379 
	C1105.536499,738.474609 1106.370239,738.344666 1107.204102,738.214783 
	C1106.666260,737.614075 1106.128540,737.013367 1105.590698,736.412659 
M1106.694458,733.149658 
	C1106.240234,732.311890 1105.786011,731.474060 1105.331787,730.636292 
	C1104.880737,730.981934 1104.429688,731.327637 1103.978638,731.673157 
	C1104.568115,732.133057 1105.157593,732.592957 1106.694458,733.149658 
z"/>
<path fill="#FFFDFD" opacity="1.000000" stroke="none" 
	d="
M1088.073975,738.797424 
	C1087.308472,735.686340 1086.078857,732.957275 1086.117065,730.246094 
	C1086.146240,728.165955 1087.324707,725.629272 1088.844116,724.203796 
	C1089.913696,723.200378 1091.193726,724.675537 1092.486450,726.277954 
	C1094.604126,728.902893 1096.581299,729.892822 1092.455444,732.259094 
	C1091.869141,732.595276 1092.855103,735.998108 1093.415527,737.892334 
	C1093.780396,739.126038 1094.691895,740.198059 1095.358521,741.342529 
	C1094.889771,741.789856 1094.421143,742.237183 1093.952393,742.684570 
	C1092.020020,741.518738 1090.087646,740.352905 1088.073975,738.797424 
z"/>
<path fill="#FFFDFD" opacity="1.000000" stroke="none" 
	d="
M954.218018,727.781982 
	C954.264587,729.012085 954.266357,730.400574 953.573669,731.064331 
	C951.008423,733.522217 951.101074,735.664307 953.570068,738.112854 
	C954.365173,738.901367 954.607300,740.247375 955.255615,741.675842 
	C949.858032,742.391296 946.936096,740.464539 947.769775,735.908142 
	C948.371704,732.617737 943.025146,729.949219 947.244751,726.691162 
	C948.213257,725.943237 948.953308,724.899536 949.798462,723.991943 
	C950.598999,724.909424 951.349609,725.878540 952.221436,726.722412 
	C952.649963,727.137146 953.302979,727.320007 954.218018,727.781982 
z"/>
<path fill="#FFFDFD" opacity="1.000000" stroke="none" 
	d="
M910.061035,728.243835 
	C912.911987,727.889160 915.568970,727.889160 918.629883,727.889160 
	C919.252441,729.783875 919.778259,731.011536 916.621704,732.629395 
	C914.572205,733.679871 914.196106,737.995361 912.720398,741.734070 
	C912.696655,741.735535 911.361938,741.816528 909.866943,741.907349 
	C909.866943,737.201843 909.866943,732.900146 910.061035,728.243835 
z"/>
<path fill="#FFFDFD" opacity="1.000000" stroke="none" 
	d="
M1048.230225,736.879028 
	C1048.219849,738.635071 1048.219849,739.962341 1048.219849,741.633179 
	C1046.869385,741.747681 1045.649658,741.851135 1044.161377,741.977356 
	C1044.161377,737.122253 1044.161377,732.550659 1044.161377,727.641968 
	C1047.029907,727.828857 1049.724365,728.004395 1052.937988,728.213806 
	C1053.338257,729.915649 1054.003418,731.847229 1050.442017,732.536072 
	C1049.491455,732.719971 1048.962891,735.085938 1048.230225,736.879028 
z"/>
<path fill="#FFFDFD" opacity="1.000000" stroke="none" 
	d="
M1057.338989,736.819092 
	C1057.338135,733.709717 1057.338135,731.057312 1057.338135,727.863831 
	C1058.807861,727.790527 1060.148193,727.723694 1061.708496,727.645874 
	C1061.708496,732.538391 1061.708496,736.963074 1061.708496,741.666504 
	C1060.353394,741.666504 1059.115234,741.666504 1057.546143,741.666504 
	C1057.476929,740.194397 1057.408447,738.735168 1057.338989,736.819092 
z"/>
<path fill="#FF0101" opacity="1.000000" stroke="none" 
	d="
M638.952393,631.406006 
	C636.560547,631.406250 634.609619,631.406250 632.435913,631.406250 
	C632.435913,623.257751 632.435913,615.670715 632.435913,607.092163 
	C637.401184,607.409973 642.351135,607.267761 647.107056,608.159912 
	C651.902405,609.059387 654.315979,614.135986 653.893311,620.558044 
	C653.495972,626.596313 650.831970,630.181519 645.846130,631.022949 
	C643.733765,631.379456 641.546509,631.291626 638.952393,631.406006 
z"/>
<path fill="#040404" opacity="1.000000" stroke="none" 
	d="
M1040.336426,588.114258 
	C1031.517822,583.650452 1028.170410,576.810547 1030.138428,567.973694 
	C1031.735352,560.802429 1038.145142,555.736938 1046.082520,555.373352 
	C1054.424072,554.991272 1061.209595,559.254761 1063.383423,566.732117 
	C1065.244141,573.132202 1064.647705,579.320374 1059.665771,584.309814 
	C1054.271484,589.711975 1047.701172,590.106140 1040.336426,588.114258 
z"/>
<path fill="#FFFF07" opacity="1.000000" stroke="none" 
	d="
M1030.392822,552.121094 
	C1032.498169,552.685791 1034.187866,553.190186 1036.185547,553.786499 
	C1022.646545,566.364746 1022.642273,577.044678 1035.699951,590.629333 
	C1028.014526,594.337585 1017.982422,592.987671 1012.069153,587.449524 
	C1006.096802,581.856140 1004.128906,572.459595 1007.245911,564.418884 
	C1010.177795,556.855408 1017.250854,552.154419 1025.988403,551.987671 
	C1027.317017,551.962280 1028.647461,552.033997 1030.392822,552.121094 
z"/>
<path fill="#FF05FF" opacity="1.000000" stroke="none" 
	d="
M825.279053,583.136230 
	C818.622314,589.603760 809.921997,591.036743 802.619324,587.110535 
	C796.344238,583.736877 793.127197,576.577209 794.519958,569.296814 
	C795.791382,562.650574 799.441711,557.886047 806.018616,556.212463 
	C812.983887,554.440002 819.751648,555.186829 824.766968,561.100586 
	C829.375549,566.534546 829.976074,572.805542 827.479858,579.384338 
	C827.014343,580.611145 826.186584,581.700500 825.279053,583.136230 
z"/>
<path fill="#08FEFF" opacity="1.000000" stroke="none" 
	d="
M784.300537,552.943787 
	C790.140198,551.364807 795.429932,551.531433 800.902161,553.999939 
	C788.322571,562.568176 786.574707,580.513428 800.409912,590.491577 
	C790.337036,595.803101 777.084778,591.639893 772.359924,581.679688 
	C766.963867,570.304626 771.941406,557.946045 784.300537,552.943787 
z"/>
<path fill="#FF0101" opacity="1.000000" stroke="none" 
	d="
M1034.305664,736.476196 
	C1032.552246,736.917908 1030.782227,737.472473 1029.497681,736.912842 
	C1028.869873,736.639282 1028.710327,734.123962 1029.164307,732.939636 
	C1029.474731,732.129700 1031.210571,731.866089 1032.309204,731.358276 
	C1033.035767,732.949036 1033.762451,734.539673 1034.305664,736.476196 
z"/>
<path fill="#FF0101" opacity="1.000000" stroke="none" 
	d="
M986.973450,731.314758 
	C990.046448,733.259766 990.134399,735.588684 987.825012,737.507629 
	C987.156006,738.063416 984.316650,737.372437 983.785828,736.475464 
	C982.127014,733.672729 983.408508,731.774292 986.973450,731.314758 
z"/>
<path fill="#FF0101" opacity="1.000000" stroke="none" 
	d="
M928.271301,735.595703 
	C929.913757,735.691040 931.101074,735.821899 932.288330,735.952820 
	C932.341492,736.336975 932.394592,736.721130 932.447754,737.105225 
	C931.121521,737.449585 929.802979,737.853394 928.454773,738.026062 
	C928.345825,738.039978 928.033752,736.466919 928.271301,735.595703 
z"/>
<path fill="#FF0101" opacity="1.000000" stroke="none" 
	d="
M899.294067,737.663025 
	C895.693481,738.618530 894.431213,736.873657 895.052063,734.069641 
	C895.300232,732.948975 897.507751,731.181702 898.222290,731.431152 
	C901.395386,732.538391 901.120300,734.970947 899.294067,737.663025 
z"/>
<path fill="#FF0101" opacity="1.000000" stroke="none" 
	d="
M1106.220703,733.101257 
	C1105.157593,732.592957 1104.568115,732.133057 1103.978638,731.673218 
	C1104.429688,731.327637 1104.880737,730.981934 1105.331787,730.636230 
	C1105.786011,731.474060 1106.240234,732.311890 1106.220703,733.101257 
z"/>
<path fill="#FF0101" opacity="1.000000" stroke="none" 
	d="
M1105.263550,736.800781 
	C1106.128540,737.013367 1106.666260,737.614075 1107.204102,738.214783 
	C1106.370239,738.344666 1105.536499,738.474609 1104.526733,738.311279 
	C1104.546021,737.741577 1104.741211,737.465210 1105.263550,736.800781 
z"/>
</svg>